Coordinates
version=1
nRows=16
nColumns=36
inDegrees=yes

Units are S.I. units (second, meters, Newtons, ...)
If the header above contains a line with 'inDegrees', this indicates whether rotational values are in degrees (yes) or radians (no).

endheader
time	pelvis_tilt	pelvis_list	pelvis_rotation	pelvis_tx	pelvis_ty	pelvis_tz	hip_flexion_r	hip_adduction_r	hip_rotation_r	knee_angle_r	knee_angle_r_beta	ankle_angle_r	subtalar_angle_r	mtp_angle_r	hip_flexion_l	hip_adduction_l	hip_rotation_l	knee_angle_l	knee_angle_l_beta	ankle_angle_l	subtalar_angle_l	mtp_angle_l	lumbar_extension	lumbar_bending	lumbar_rotation	arm_flex_r	arm_add_r	arm_rot_r	elbow_flex_r	pro_sup_r	arm_flex_l	arm_add_l	arm_rot_l	elbow_flex_l	pro_sup_l
      4.50000000	     -2.48561252	     -1.11445092	     -5.42229361	      0.82537332	      1.00504790	      0.05086944	     -1.79777382	     -1.29192850	      2.01959438	      1.31704070	      0.02298670	      7.08475177	     -9.49291192	     -7.49999987	     -0.50602698	     -6.52384536	      2.42419926	      0.75888625	      0.01324506	      2.75145668	     -5.26225217	     -7.49999987	    -12.34960303	      3.32043871	      1.01183855	    200.47979032	   -165.49951889	    184.27383939	     56.33022239	     95.14136599	     22.60302415	    -12.92169561	      2.54971933	     65.34718500	     96.08833229
      4.51666670	     -2.25659675	     -1.11728647	     -5.57665099	      0.82476661	      1.00282658	      0.05060852	     -1.94744171	     -1.35281462	      2.19544708	      1.44384789	      0.02519990	      7.24587560	     -9.42752717	     -7.49999987	     -0.72352984	     -6.46920369	      2.49532523	      0.83153247	      0.01451298	      2.73700260	     -5.59446515	     -7.49999987	    -12.63267867	      3.32049783	      1.21865481	    199.63942732	   -165.62331660	    183.75906515	     55.08330458	     95.19165201	     21.71524661	    -12.24517810	      3.29868272	     63.74826526	     95.92825813
      4.53333330	     -2.09458325	     -1.11228843	     -5.65916969	      0.82489879	      1.00538638	      0.05109905	     -2.02429093	     -1.40930704	      2.32611221	      1.60546856	      0.02802071	      7.38211256	     -9.33066033	     -7.49999987	     -0.84533540	     -6.41593412	      2.57202424	      0.91886845	      0.01603728	      2.64412507	     -5.85873264	     -7.49999987	    -12.78993248	      3.27397402	      1.16659808	    198.74841224	   -165.95893070	    183.98653547	     52.49751054	     93.92178587	     20.76195826	    -11.58628635	      3.74840015	     62.02472855	     95.43599873
      4.55000000	     -1.86650731	     -1.12764089	     -5.71990504	      0.82367511	      1.00817504	      0.05105160	     -2.16871385	     -1.44238352	      2.39946205	      1.75557844	      0.03064062	      7.51569499	     -9.17841435	     -7.49999987	     -1.01279438	     -6.38100505	      2.57424584	      1.00265554	      0.01749964	      2.64425621	     -6.00579166	     -7.49999987	    -13.10444696	      3.29022153	      1.12466579	    198.33676403	   -166.19825033	    185.12638323	     49.67797752	     91.66694635	     19.36599303	    -11.07827639	      4.22087182	     60.53566301	     93.19782494
      4.56666670	     -1.60154062	     -1.13997632	     -5.82973927	      0.82413163	      1.00058717	      0.05124854	     -2.33952478	     -1.48210030	      2.64521070	      1.93269966	      0.03373197	      7.53356815	     -9.36395246	     -7.49999987	     -1.26868497	     -6.34026692	      2.56862540	      1.06764995	      0.01863401	      2.54316387	     -6.33240714	     -7.49999987	    -13.44551314	      3.19497235	      1.72104105	    196.33969722	   -166.05201829	    185.34918391	     49.09014971	     87.51490184	     17.59156514	    -10.23645945	      5.30814209	     59.42298254	     89.05220595
      4.58333330	     -1.40736326	     -1.17104167	     -5.93291894	      0.82286811	      1.01070782	      0.05154316	     -2.46162073	     -1.49058395	      2.66969795	      2.04732825	      0.03573262	      7.67051145	     -9.11501519	     -7.49999987	     -1.48039314	     -6.34295450	      2.45870089	      1.08116196	      0.01886984	      2.69307009	     -6.09515447	     -7.49999987	    -13.60027379	      3.11987379	      1.96225672	    195.30103079	   -166.21435085	    186.52855239	     45.39369701	     86.46234853	     15.89456756	     -9.51972331	      6.13663757	     56.64788586	     88.31339610
      4.60000000	     -1.20430980	     -1.19767303	     -6.09049217	      0.82333411	      1.00519322	      0.05178547	     -2.59398969	     -1.49220033	      2.80236840	      2.17105403	      0.03789204	      7.78807648	     -9.06718475	     -7.49999987	     -1.69345258	     -6.34188043	      2.49100054	      1.17303218	      0.02047327	      2.62467829	     -6.26201994	     -7.49999987	    -13.93984131	      3.03708585	      1.99339489	    194.06029708	   -166.58682032	    186.08373724	     42.83735558	     86.98395293	     14.99722586	     -8.89280764	      6.63080879	     53.50341976	     88.96913400
      4.61666670	     -0.88629277	     -1.19779797	     -6.32213081	      0.82902408	      0.99584804	      0.04974166	     -2.88221463	     -1.58425841	      2.88812359	      2.28195059	      0.03982755	      7.89036025	     -8.98965401	     -7.49999987	     -2.12998974	     -6.25761239	      2.58398780	      1.25337750	      0.02187556	      2.52350848	     -6.75388119	     -7.49999987	    -14.15630666	      2.95689935	      1.74325408	    193.03805876	   -166.57147150	    186.92537536	     40.93156231	     84.70824068	     13.55103246	     -8.59986818	      6.56192230	     52.26802046	     86.70059691
      4.63333330	     -0.22958871	     -1.15505132	     -6.53253378	      0.84263309	      0.99501804	      0.04716387	     -3.84992895	     -1.80717298	      2.90159383	      2.05340178	      0.03583862	      8.05710968	     -8.73692714	     -7.49999987	     -3.18604428	     -6.04853171	      2.65697482	      1.15780929	      0.02020758	      2.43361662	     -7.00360271	     -7.49999987	    -14.35813810	      2.82789363	      1.44982558	    191.80114735	   -166.40517690	    188.47047957	     38.27347578	     82.01956652	     11.35142994	     -8.10921866	      6.10298394	     50.24347802	     84.20890984
      4.65000000	      0.50252080	     -1.24178481	     -6.60251624	      0.83422813	      0.99331898	      0.04859842	     -4.73977175	     -1.85615009	      2.97401148	      2.04650480	      0.03571825	      8.18007485	     -8.78691532	     -7.49999987	     -4.11032906	     -6.00374117	      2.74583731	      1.21128993	      0.02114100	      2.53962554	     -7.12987809	     -7.49999987	    -15.04411409	      2.78325917	      1.23433049	    190.89946581	   -166.77827535	    187.84988856	     35.56698488	     81.80118430	     10.16096847	     -7.68785419	      5.32223003	     46.54023661	     84.00179098
      4.66666670	      0.92721718	     -1.23710966	     -6.70632694	      0.83391435	      0.98873306	      0.04865763	     -5.24900630	     -1.98081242	      3.14544734	      2.13545471	      0.03727072	      8.36056878	     -8.86941987	     -7.49999987	     -4.66776139	     -5.89431557	      2.79656691	      1.34261472	      0.02343305	      2.76876777	     -7.26927246	     -7.49999987	    -15.18831934	      2.57903256	      1.50298986	    189.81629852	   -167.02078410	    186.91863731	     33.54707113	     81.46801738	      9.15086797	     -7.58847104	      5.46290247	     43.52166942	     83.52508968
      4.68333330	      1.33260531	     -1.23745931	     -6.85567967	      0.83290047	      0.99203876	      0.04865051	     -5.74202300	     -2.09034506	      3.45992017	      2.13571240	      0.03727521	      8.45023379	     -9.13100799	     -7.49999987	     -5.19971135	     -5.81250701	      2.74505914	      1.37535297	      0.02400444	      2.96581582	     -7.26422390	     -7.49999987	    -15.36993450	      2.36018831	      1.60680993	    188.66286958	   -167.36101904	    185.81932715	     31.26613222	     79.84755951	      8.38848153	     -7.35484048	      5.57004339	     39.41461183	     81.02231583
      4.70000000	      1.81596897	     -1.25075821	     -6.82634709	      0.83321171	      0.99534107	      0.04870180	     -6.36473765	     -2.17825322	      3.43791577	      2.11345008	      0.03688666	      8.65795718	     -8.90577668	     -7.49999987	     -5.76960519	     -5.74584542	      3.05139609	      1.38937843	      0.02424923	      2.96542706	     -7.63501652	     -7.49999987	    -15.76514173	      2.16683752	      1.55955884	    187.58779190	   -167.56510058	    185.22860766	     29.40358993	     78.42727603	      7.51118963	     -7.55853926	      6.39668243	     35.20951689	     77.18264412
      4.71666670	      2.17090726	     -1.22068841	     -6.93223327	      0.83233976	      0.99571057	      0.04825940	     -6.80369119	     -2.30812724	      3.70241141	      2.07461706	      0.03620890	      8.66754154	     -9.23557515	     -7.49999987	     -6.18618583	     -5.64182758	      3.05566908	      1.42105663	      0.02480212	      3.00787017	     -7.69732661	     -7.49999987	    -15.93175211	      1.97721834	      1.63291246	    186.26797373	   -167.89580073	    183.93802628	     27.55362030	     75.53853355	      6.68276372	     -7.43878050	      6.54244243	     31.69577029	     73.48039133
      4.73333330	      2.59135933	     -1.18889343	     -6.85563998	      0.83231924	      0.99896561	      0.04867599	     -7.36847012	     -2.43126918	      3.37992095	      1.97320524	      0.03443893	      8.97480461	     -8.57097681	     -7.49999987	     -6.66325684	     -5.54188919	      3.22555951	      1.38471562	      0.02416785	      2.98934484	     -7.66671064	     -7.49999987	    -16.17689314	      1.88707826	      1.06300306	    184.91182154	   -168.26985833	    182.34264286	     25.90501393	     73.10292448	      5.50709264	     -7.53512807	      6.05693711	     28.20545038	     70.80103754
      4.75000000	      2.85330406	     -1.20708967	     -7.03370639	      0.83119258	      1.00203953	      0.04888463	     -7.65996135	     -2.48067561	      3.97224252	      1.95193390	      0.03406767	      8.80053195	     -9.22644073	     -7.49999987	     -7.03560172	     -5.50962306	      3.14937157	      1.29224379	      0.02255391	      3.09896341	     -7.61771792	     -7.49999987	    -16.33014919	      1.72562266	      1.07181068	    183.96429311	   -168.22909261	    181.71855199	     23.31591189	     78.87537326	      4.57293594	     -7.55103599	      4.27101239	     25.57815932	     73.68783263
